<svg xmlns="http://www.w3.org/2000/svg" fill="none" style="height:24px" viewBox="0 0 1600 400"><title>F1</title><g clip-path="url(#a)"><path fill="#e10600" d="M1367.21 312.501c12.62 0 23.04 4.209 31.29 12.667s12.38 18.833 12.38 31.166-4.09 22.709-12.3 31.084c-8.2 8.375-18.58 12.583-31.2 12.583-12.63 0-23.13-4.209-31.46-12.667-8.38-8.458-12.54-18.833-12.54-31.166s4.16-22.709 12.45-31.084c8.3-8.375 18.76-12.583 31.38-12.583m-200.17-162.709H635.292c-133.333 0-161.708 10.291-231.625 78.083h.041L226.292 400H0l281.542-279.417C386.208 17 436.667 0 615.125 0h704.915zm-22.83 23.916-140.25 140.25H641.125c-66.5 0-81.208 3.125-114.208 36.125L477 400H267.167l155.125-155.125C483.209 184 504.209 173.708 638.5 173.708zM1600 0l-401.08 400H950.875L1350.88 0zm-232.87 319.376c-10.34 0-19 3.584-26 10.75-6.96 7.167-10.46 15.834-10.46 26.042s3.5 18.874 10.46 26.041 15.62 10.75 26 10.75c10.37 0 19-3.541 26-10.666 6.96-7.125 10.45-15.792 10.45-26.042s-3.49-18.958-10.45-26.125-15.63-10.75-26-10.75m.08 12.708c6.29 0 11.04 1.167 14.21 3.542 3.16 2.333 4.75 5.875 4.75 10.583s-.63 8.208-1.92 10.5-3.46 4.125-6.54 5.542l9.12 18.417h-10.12l-8.29-17.167h-9.79l-.05-.042v17.167h-9.62v-48.542zm-8.79 23.834h9.79c3 0 5.17-.625 6.46-1.917 1.33-1.292 2-3.375 2-6.25 0-5.458-3.42-8.167-10.29-8.167h-7.96z"/></g><defs><clipPath id="a"><path fill="#fff" d="M0 0h1600v400H0z"/></clipPath></defs></svg>